<?xml version="1.0" encoding="UTF-8" standalone="no"?>
<!-- Generator: Adobe Illustrator 25.2.0, SVG Export Plug-In . SVG Version: 6.00 Build 0)  -->

<svg
   version="1.1"
   id="Layer_1"
   x="0px"
   y="0px"
   viewBox="0 0 756 171"
   xml:space="preserve"
   sodipodi:docname="logo.svg"
   inkscape:version="1.1.1 (c3084ef, 2021-09-22)"
   width="756"
   height="171"
   xmlns:inkscape="http://www.inkscape.org/namespaces/inkscape"
   xmlns:sodipodi="http://sodipodi.sourceforge.net/DTD/sodipodi-0.dtd"
   xmlns="http://www.w3.org/2000/svg"
   xmlns:svg="http://www.w3.org/2000/svg"><defs
   id="defs113" /><sodipodi:namedview
   id="namedview111"
   pagecolor="#ffffff"
   bordercolor="#666666"
   borderopacity="1.0"
   inkscape:pageshadow="2"
   inkscape:pageopacity="0.0"
   inkscape:pagecheckerboard="0"
   showgrid="false"
   inkscape:zoom="0.50448388"
   inkscape:cx="1089.232"
   inkscape:cy="347.88029"
   inkscape:window-width="1440"
   inkscape:window-height="847"
   inkscape:window-x="0"
   inkscape:window-y="25"
   inkscape:window-maximized="1"
   inkscape:current-layer="Layer_1" />
<style
   type="text/css"
   id="style78">
	.st0{fill:#FFDE00;}
	.st1{display:none;fill:#FFDE00;}
	.st2{fill:#24272D;}
</style>
<rect
   class="st1"
   width="100"
   height="100"
   id="rect80"
   x="0"
   y="0" />
<g
   id="g108"
   transform="matrix(0.51238452,0,0,0.51238452,-134.43431,-427.04687)">
	<g
   id="g106">
		<polygon
   class="st2"
   points="280.66,1146.53 280.66,853.47 1266.07,853.47 1266.07,833.45 280.66,833.45 262.37,833.45 262.37,1166.55 280.66,1166.55 1737.63,1166.55 1737.63,1146.53 "
   id="polygon82" />
		<g
   id="g98">
			<path
   class="st2"
   d="M 337.13,915.41 H 354.8 V 1084.7 H 337.13 Z"
   id="path84" />
			<path
   class="st2"
   d="m 391.72,915.41 116.82,127.2 v -127.2 h 16.54 V 1084.7 L 408.26,957.28 v 127.42 h -16.54 z"
   id="path86" />
			<path
   class="st2"
   d="m 562,915.41 h 56.62 c 2.34,0 5.43,0.11 9.29,0.34 3.85,0.23 6.94,0.57 9.29,1.02 5.74,1.29 10.61,3.3 14.61,6.06 4,2.76 7.28,6.08 9.85,9.96 2.57,3.89 4.47,8.12 5.72,12.68 1.25,4.57 1.87,9.23 1.87,13.99 0,3.7 -0.55,7.49 -1.64,11.38 -1.1,3.89 -2.76,7.53 -4.98,10.93 -2.23,3.4 -5.06,6.44 -8.49,9.12 -3.44,2.68 -7.38,4.59 -11.83,5.72 4.6,0.91 8.93,2.6 12.97,5.1 4.04,2.49 7.53,5.47 10.47,8.95 2.94,3.47 5.27,7.4 6.96,11.78 1.7,4.38 2.55,9.06 2.55,14.04 0,5.59 -0.81,10.93 -2.43,16.02 -1.62,5.1 -3.94,9.74 -6.96,13.93 -3.02,4.19 -6.7,7.74 -11.04,10.64 -4.34,2.91 -9.12,5 -14.33,6.29 -2.49,0.61 -5.68,0.98 -9.57,1.13 -3.89,0.15 -7.12,0.23 -9.68,0.23 H 562 Z m 56.84,74.4 c 2.19,0 4.87,-0.19 8.04,-0.57 3.17,-0.38 5.74,-0.94 7.7,-1.7 5.13,-2.19 9.25,-5.72 12.34,-10.59 3.09,-4.87 4.64,-10.55 4.64,-17.04 0,-6.04 -1.32,-11.68 -3.96,-16.93 -2.64,-5.25 -7.36,-8.96 -14.15,-11.15 -1.66,-0.6 -4.08,-0.98 -7.25,-1.13 -3.17,-0.15 -5.7,-0.23 -7.59,-0.23 h -38.95 v 59.34 z m 2.38,79.83 c 1.06,0 2.32,0 3.79,0 1.47,0 2.98,-0.04 4.53,-0.11 1.55,-0.07 3.06,-0.19 4.53,-0.34 1.47,-0.15 2.66,-0.38 3.57,-0.68 6.49,-1.89 11.44,-5.74 14.83,-11.55 3.4,-5.81 5.1,-12.64 5.1,-20.5 0,-6.94 -2.17,-13.25 -6.51,-18.91 -4.34,-5.66 -10.29,-9.4 -17.84,-11.21 -1.81,-0.45 -4.15,-0.81 -7.02,-1.08 -2.87,-0.26 -5.32,-0.4 -7.36,-0.4 h -39.18 v 64.77 h 41.56 z"
   id="path88" />
			<path
   class="st2"
   d="m 782.46,1084.7 c -11.9,0 -23.02,-2.13 -33.34,-6.39 -10.32,-4.26 -19.32,-10.19 -27,-17.8 -7.68,-7.6 -13.74,-16.53 -18.18,-26.78 -4.45,-10.25 -6.67,-21.36 -6.67,-33.34 0,-11.75 2.26,-22.8 6.78,-33.12 4.52,-10.32 10.62,-19.32 18.3,-27 7.68,-7.68 16.68,-13.74 27,-18.19 10.32,-4.44 21.25,-6.67 32.79,-6.67 12.2,0 23.49,2.15 33.89,6.45 10.4,4.3 19.4,10.25 27,17.85 7.61,7.61 13.56,16.57 17.86,26.89 4.3,10.32 6.45,21.47 6.45,33.45 0,12.2 -2.19,23.46 -6.56,33.78 -4.37,10.32 -10.36,19.29 -17.96,26.89 -7.6,7.61 -16.57,13.5 -26.89,17.69 -10.35,4.2 -21.5,6.29 -33.47,6.29 z m -0.33,-14.66 c 10.29,0 19.6,-1.8 27.94,-5.4 8.34,-3.6 15.48,-8.56 21.44,-14.88 5.95,-6.32 10.54,-13.68 13.78,-22.1 3.23,-8.41 4.85,-17.43 4.85,-27.06 0,-9.99 -1.62,-19.27 -4.85,-27.83 -3.23,-8.56 -7.79,-16 -13.67,-22.32 -5.88,-6.32 -12.99,-11.28 -21.33,-14.88 -8.34,-3.6 -17.62,-5.4 -27.83,-5.4 -9.99,0 -19.16,1.91 -27.5,5.73 -8.34,3.82 -15.48,8.93 -21.44,15.32 -5.95,6.39 -10.62,13.85 -14,22.37 -3.38,8.52 -5.07,17.45 -5.07,26.78 0,9.48 1.69,18.42 5.07,26.84 3.38,8.42 8.05,15.78 14,22.1 5.95,6.32 13.06,11.35 21.33,15.1 8.27,3.76 17.36,5.63 27.28,5.63 z"
   id="path90" />
			<path
   class="st2"
   d="m 937.81,998.87 -50.84,-83.45 h 20.16 l 42.24,67.94 40.88,-67.94 h 19.93 l -50.62,84.13 51.97,85.15 h -20.84 l -42.24,-69.07 -41.56,69.07 h -20.83 z"
   id="path92" />
			<path
   class="st2"
   d="m 1032.35,915.41 h 104.18 v 15.06 h -86.51 v 59.79 h 82.32 v 15.17 h -82.32 v 64.2 h 86.51 v 15.06 h -104.18 z"
   id="path94" />
			<path
   class="st2"
   d="m 1212.28,1086.97 c -10.95,0 -21.21,-2.08 -30.8,-6.23 -9.59,-4.15 -17.93,-10.64 -25.03,-19.48 l 12.68,-10.64 c 4.98,6.49 11.23,11.7 18.74,15.63 7.51,3.93 15.8,5.89 24.86,5.89 5.43,0 10.36,-0.89 14.78,-2.66 4.42,-1.77 8.17,-4.17 11.27,-7.19 3.09,-3.02 5.49,-6.57 7.19,-10.64 1.7,-4.08 2.55,-8.45 2.55,-13.14 0,-4.3 -0.77,-8.04 -2.32,-11.21 -1.55,-3.17 -3.61,-5.98 -6.17,-8.44 -2.57,-2.45 -5.62,-4.59 -9.17,-6.4 -3.55,-1.81 -7.25,-3.47 -11.1,-4.98 l -19.93,-7.7 c -4.68,-1.81 -9.17,-3.92 -13.48,-6.34 -4.3,-2.41 -8.08,-5.36 -11.32,-8.83 -3.25,-3.47 -5.85,-7.49 -7.81,-12.06 -1.96,-4.57 -2.95,-9.95 -2.95,-16.14 0,-6.11 1.28,-11.81 3.85,-17.1 2.57,-5.28 6.06,-9.85 10.47,-13.7 4.42,-3.85 9.62,-6.91 15.63,-9.17 6,-2.27 12.51,-3.4 19.53,-3.4 10.04,0 18.42,1.44 25.14,4.3 6.72,2.87 13.02,6.87 18.91,12 l -10.64,12.23 c -4.53,-4.3 -9.46,-7.61 -14.78,-9.91 -5.32,-2.3 -11.53,-3.45 -18.63,-3.45 -4.53,0 -8.68,0.68 -12.46,2.04 -3.78,1.36 -7.1,3.32 -9.96,5.89 -2.87,2.57 -5.12,5.55 -6.74,8.95 -1.62,3.4 -2.43,7.1 -2.43,11.1 0,3.78 0.7,7.08 2.1,9.91 1.4,2.83 3.24,5.34 5.55,7.53 2.3,2.19 5.04,4.13 8.21,5.83 3.17,1.7 6.53,3.23 10.08,4.59 l 19.25,7.7 c 4.98,1.96 9.8,4.23 14.44,6.79 4.64,2.57 8.78,5.66 12.4,9.29 3.62,3.63 6.51,7.91 8.66,12.85 2.15,4.94 3.23,10.81 3.23,17.61 0,6.87 -1.38,13.27 -4.13,19.19 -2.76,5.93 -6.57,11.1 -11.44,15.51 -4.87,4.42 -10.59,7.85 -17.16,10.3 -6.58,2.45 -13.6,3.68 -21.07,3.68 z"
   id="path96" />
		</g>
		<path
   class="st2"
   d="m 1394.98,915.41 72.15,169.29 h -18.39 l -18.39,-43.59 h -71.07 l -18.61,43.59 h -18.39 z m 29.21,111.42 -29.42,-70.63 -29.31,70.63 z"
   id="path100" />
		<path
   class="st2"
   d="m 1491.12,915.41 h 53.56 c 5.59,0 10.96,0.47 16.14,1.41 5.17,0.95 9.72,2.4 13.65,4.36 7.55,4 13.95,9.87 19.19,17.61 5.25,7.74 7.87,17.19 7.87,28.37 0,6.49 -0.85,12.48 -2.55,17.95 -1.7,5.47 -3.98,10.34 -6.85,14.61 -2.87,4.26 -6.15,7.91 -9.85,10.93 -3.7,3.02 -7.63,5.28 -11.78,6.79 -3.55,1.21 -7.42,2.02 -11.61,2.43 -4.19,0.42 -9.23,0.62 -15.12,0.62 h -34.99 v 64.21 h -17.67 V 915.41 Z m 52.89,90.03 c 4.53,0 8.17,-0.09 10.93,-0.28 2.76,-0.19 5.68,-0.81 8.78,-1.87 2.79,-0.91 5.4,-2.43 7.81,-4.59 2.42,-2.15 4.55,-4.77 6.4,-7.87 1.85,-3.09 3.32,-6.62 4.42,-10.59 1.09,-3.96 1.64,-8.17 1.64,-12.63 0,-8.38 -1.62,-15.23 -4.87,-20.55 -3.25,-5.32 -7.29,-9.3 -12.12,-11.95 -5.43,-3.09 -12.87,-4.64 -22.31,-4.64 h -35.9 v 74.96 h 35.22 z"
   id="path102" />
		<path
   class="st2"
   d="m 1627.23,915.41 h 53.56 c 5.59,0 10.96,0.47 16.14,1.41 5.17,0.95 9.72,2.4 13.65,4.36 7.55,4 13.95,9.87 19.19,17.61 5.25,7.74 7.87,17.19 7.87,28.37 0,6.49 -0.85,12.48 -2.55,17.95 -1.7,5.47 -3.98,10.34 -6.85,14.61 -2.87,4.26 -6.15,7.91 -9.85,10.93 -3.7,3.02 -7.63,5.28 -11.78,6.79 -3.55,1.21 -7.42,2.02 -11.61,2.43 -4.19,0.42 -9.23,0.62 -15.12,0.62 h -34.99 v 64.21 h -17.67 V 915.41 Z m 52.88,90.03 c 4.53,0 8.17,-0.09 10.93,-0.28 2.76,-0.19 5.68,-0.81 8.78,-1.87 2.79,-0.91 5.4,-2.43 7.81,-4.59 2.42,-2.15 4.55,-4.77 6.4,-7.87 1.85,-3.09 3.32,-6.62 4.42,-10.59 1.09,-3.96 1.64,-8.17 1.64,-12.63 0,-8.38 -1.62,-15.23 -4.87,-20.55 -3.25,-5.32 -7.29,-9.3 -12.12,-11.95 -5.43,-3.09 -12.87,-4.64 -22.31,-4.64 h -35.9 v 74.96 h 35.22 z"
   id="path104" />
	</g>
</g>
</svg>
